<?xml version="1.0" encoding="UTF-8"?>
<!DOCTYPE svg PUBLIC "-//W3C//DTD SVG 1.1//EN" "http://www.w3.org/Graphics/SVG/1.1/DTD/svg11.dtd">
<!-- Creator: CorelDRAW X7 -->
<svg xmlns="http://www.w3.org/2000/svg" xml:space="preserve" width="1024px" height="199px" version="1.1" style="shape-rendering:geometricPrecision; text-rendering:geometricPrecision; image-rendering:optimizeQuality; fill-rule:evenodd; clip-rule:evenodd"
viewBox="0 0 10240 1990"
 xmlns:xlink="http://www.w3.org/1999/xlink">
 <defs>
  <style type="text/css">
   <![CDATA[
    .fil0 {fill:url(#id0)}
   ]]>
  </style>
  <linearGradient id="id0" gradientUnits="userSpaceOnUse" x1="2079.84" y1="-684.733" x2="8160.16" y2="2674.73">
   <stop offset="0" style="stop-opacity:1; stop-color:#58BA6E"/>
   <stop offset="1" style="stop-opacity:1; stop-color:#0B1ED1"/>
  </linearGradient>
 </defs>
 <g id="Layer_x0020_1">
  <metadata id="CorelCorpID_0Corel-Layer"/>
  <path class="fil0" d="M865 282l429 0c260,-309 718,-374 1055,-138 357,250 443,742 194,1099 -219,312 -624,417 -960,271l98 -141c259,95 559,10 724,-227 197,-281 129,-668 -152,-864 -281,-197 -668,-129 -865,152 -165,236 -143,548 35,758l-99 141c-29,-31 -55,-63 -78,-97l-568 0c-37,0 -68,-31 -68,-68l0 0c0,-38 31,-68 68,-68l493 0 49 0c37,0 68,-31 68,-68l0 0c0,-38 -31,-69 -68,-69l-93 0c0,0 0,-1 0,-2 -6,1 -13,2 -20,2l-278 0c-37,0 -68,-30 -68,-68l0 0c0,-37 31,-68 68,-68l278 0c1,0 1,0 2,0l0 0 9 0c38,0 68,-30 68,-68l0 0c0,-37 -30,-68 -68,-68l-4 0 -130 0c-38,0 -68,-31 -68,-68l0 0c0,-38 30,-68 68,-68l160 0 15 0 31 0c38,0 68,-31 68,-68l0 0c0,-34 -25,-63 -57,-68l0 -1 -336 0c-37,0 -68,-30 -68,-68l0 0c0,-37 31,-68 68,-68zm2254 274c24,-3 47,-5 68,-7 21,-2 44,-3 70,-3 29,0 59,3 88,9 29,5 56,15 79,29 23,13 42,32 57,56 14,24 21,54 21,90 0,22 -2,41 -8,58 -5,16 -12,31 -21,44 -8,12 -17,23 -27,32 -10,9 -19,16 -28,22l-14 9 143 248c-10,1 -22,2 -34,3 -12,1 -24,2 -37,2 -20,0 -41,-2 -61,-5l-154 -273 20 -10c8,-4 17,-9 28,-15 11,-5 21,-13 31,-22 10,-9 19,-20 26,-33 7,-12 11,-28 11,-45 0,-34 -10,-60 -30,-76 -19,-16 -45,-24 -76,-24 -12,0 -23,1 -32,3l0 496c-10,1 -20,2 -30,3 -10,0 -19,1 -29,1 -9,0 -19,0 -29,-1 -10,0 -21,-2 -32,-3l0 -588zm6746 -10c9,-1 19,-2 28,-3 10,0 20,-1 29,-1 9,0 19,1 29,1 9,1 19,2 29,3l0 225c4,-5 9,-11 15,-17 6,-7 14,-14 24,-20 9,-6 20,-12 33,-16 13,-4 28,-7 45,-7 47,0 82,14 107,40 24,26 36,67 36,123l0 271c-10,1 -20,2 -29,3 -10,0 -20,1 -29,1 -9,0 -19,-1 -29,-1 -9,-1 -19,-2 -29,-3l0 -240c0,-29 -5,-52 -14,-68 -9,-15 -25,-23 -47,-23 -10,0 -19,1 -29,4 -10,2 -19,8 -27,16 -7,8 -14,19 -19,33 -5,14 -8,32 -8,55l0 223c-10,1 -20,2 -29,3 -10,0 -20,1 -29,1 -9,0 -19,-1 -28,-1 -10,-1 -19,-2 -29,-3l0 -599zm-83 498c6,11 11,24 16,38 4,15 6,32 6,51 -21,9 -42,14 -61,17 -19,2 -39,4 -60,4 -35,0 -66,-6 -92,-17 -26,-11 -48,-27 -65,-46 -17,-20 -30,-43 -39,-70 -8,-27 -13,-56 -13,-88 0,-31 4,-60 13,-87 8,-26 21,-50 38,-70 17,-20 39,-36 64,-47 26,-12 56,-18 90,-18 12,0 23,1 33,1 10,1 19,2 29,4 9,1 18,3 27,6 10,3 20,6 31,11 0,12 -1,26 -4,42 -4,15 -9,30 -16,44 -16,-5 -31,-9 -43,-11 -12,-2 -26,-3 -42,-3 -34,0 -59,11 -76,34 -18,22 -26,53 -26,94 0,44 9,76 28,96 18,21 43,31 75,31 8,0 16,-1 22,-1 7,0 14,-1 20,-2 7,-1 14,-3 20,-5 7,-2 15,-5 25,-8zm-628 -323c8,-1 16,-3 23,-3 8,-1 16,-2 25,-2 8,0 16,1 24,2 8,1 15,2 23,4 2,3 3,7 4,12 2,5 3,11 4,16 1,6 2,12 3,17 1,6 2,11 2,15 12,-17 27,-32 44,-46 18,-13 39,-20 66,-20 5,0 11,1 18,1 7,1 13,2 16,3 1,5 2,11 2,18 1,8 1,15 1,22 0,10 0,20 -1,31 -1,11 -2,21 -5,31 -6,-1 -12,-2 -20,-2 -7,0 -11,0 -13,0 -9,0 -20,1 -31,3 -12,2 -22,7 -33,15 -10,8 -19,21 -26,37 -6,16 -10,39 -10,69l0 201c-10,1 -19,2 -29,3 -10,0 -20,1 -29,1 -9,0 -18,-1 -28,-1 -10,-1 -19,-2 -30,-3l0 -424zm-178 229c-7,-1 -14,-2 -21,-3 -8,-1 -15,-1 -21,-1 -26,0 -47,5 -63,14 -16,10 -23,25 -23,46 0,15 3,26 9,33 6,8 13,13 21,17 9,3 18,6 27,6 10,1 18,2 25,2 8,0 17,-1 25,-2 8,-2 15,-3 21,-4l0 -108zm0 -84c0,-13 -2,-24 -7,-32 -4,-8 -10,-15 -18,-19 -7,-5 -17,-8 -28,-10 -11,-1 -23,-2 -37,-2 -29,0 -61,6 -94,17 -8,-14 -13,-27 -17,-40 -4,-12 -6,-27 -6,-45 24,-8 48,-14 72,-18 24,-4 46,-6 67,-6 57,0 101,14 133,41 32,28 48,71 48,131l0 245c-19,6 -42,12 -70,17 -27,6 -58,9 -92,9 -28,0 -53,-3 -76,-8 -24,-5 -44,-13 -60,-24 -17,-12 -30,-26 -39,-44 -9,-18 -13,-40 -13,-67 0,-26 6,-48 17,-65 11,-18 25,-32 43,-43 18,-11 38,-18 59,-23 22,-4 44,-7 66,-7 15,0 33,1 52,3l0 -10zm-578 102c3,33 14,56 35,71 21,15 48,22 82,22 18,0 37,-2 56,-5 20,-4 38,-9 56,-15 6,11 11,24 15,39 4,15 7,32 7,49 -42,16 -90,25 -143,25 -40,0 -73,-6 -101,-17 -28,-11 -51,-26 -69,-45 -18,-19 -31,-42 -39,-69 -9,-27 -13,-56 -13,-88 0,-31 4,-60 13,-87 9,-27 22,-51 39,-71 17,-20 38,-36 64,-48 25,-12 55,-18 88,-18 30,0 56,6 79,16 23,10 42,25 58,42 16,18 28,40 37,65 8,24 12,51 12,79 0,11 -1,21 -1,31 -1,10 -2,18 -3,24l-272 0zm166 -81c-1,-26 -8,-47 -21,-63 -14,-16 -32,-24 -56,-24 -27,0 -48,7 -62,23 -15,15 -23,36 -26,64l165 0zm-602 -15c-18,-7 -35,-15 -50,-24 -14,-8 -27,-18 -37,-30 -11,-12 -19,-26 -24,-42 -6,-16 -9,-36 -9,-59 0,-28 5,-52 14,-73 10,-22 23,-39 41,-54 17,-14 38,-25 63,-33 24,-7 52,-11 82,-11 28,0 54,3 78,8 24,5 50,12 77,21 -4,32 -12,63 -27,93 -8,-3 -16,-6 -24,-10 -9,-3 -18,-6 -27,-8 -10,-2 -21,-4 -33,-5 -12,-2 -25,-2 -41,-2 -9,0 -18,1 -28,2 -9,2 -18,5 -26,9 -7,5 -13,11 -18,19 -5,9 -8,20 -8,34 0,10 2,20 6,27 4,7 9,14 16,19 6,5 13,9 22,13 8,3 16,7 24,10l49 19c21,8 40,16 57,25 16,9 31,20 43,32 11,13 20,29 27,47 6,18 10,41 10,67 0,28 -5,54 -15,76 -10,23 -25,43 -44,59 -19,17 -43,29 -71,39 -28,9 -60,14 -97,14 -18,0 -34,-1 -48,-2 -14,-1 -28,-3 -40,-5 -13,-3 -26,-6 -38,-10 -13,-4 -26,-8 -40,-14 2,-15 5,-32 9,-49 5,-17 10,-35 16,-52 23,9 44,16 64,21 21,4 42,7 65,7 34,0 61,-7 81,-19 20,-13 29,-33 29,-59 0,-13 -2,-24 -7,-33 -4,-8 -10,-16 -18,-22 -7,-6 -15,-11 -24,-15 -10,-4 -19,-8 -29,-12l-50 -18zm-537 88c-30,-9 -54,-22 -71,-39 -18,-17 -26,-43 -26,-77 0,-42 15,-74 44,-97 30,-24 71,-36 122,-36 21,0 42,2 63,6 20,4 41,10 63,17 -1,15 -4,29 -9,44 -4,16 -9,29 -15,41 -13,-6 -28,-11 -43,-15 -16,-4 -33,-6 -50,-6 -19,0 -33,3 -44,9 -10,5 -15,15 -15,27 0,12 4,20 11,25 7,5 18,10 31,14l47 14c15,5 29,10 41,16 13,6 23,14 32,23 8,10 15,21 20,35 5,13 8,30 8,50 0,20 -5,39 -13,56 -9,17 -21,33 -37,45 -16,13 -35,23 -58,31 -23,7 -49,11 -78,11 -13,0 -25,-1 -36,-2 -11,0 -21,-2 -31,-4 -11,-2 -20,-4 -30,-7 -10,-2 -21,-6 -32,-10 1,-15 4,-30 8,-45 4,-15 9,-29 16,-44 18,8 35,13 51,16 16,4 32,6 50,6 8,0 16,-1 25,-2 9,-2 17,-4 25,-8 7,-3 14,-8 19,-14 5,-5 8,-13 8,-22 0,-13 -4,-23 -12,-28 -8,-6 -19,-11 -33,-15l-51 -15zm-438 8c2,33 14,56 34,71 21,15 48,22 82,22 19,0 38,-2 57,-5 19,-4 38,-9 55,-15 6,11 11,24 16,39 4,15 6,32 7,49 -43,16 -90,25 -144,25 -39,0 -73,-6 -101,-17 -28,-11 -51,-26 -68,-45 -18,-19 -31,-42 -40,-69 -8,-27 -12,-56 -12,-88 0,-31 4,-60 13,-87 8,-27 21,-51 39,-71 17,-20 38,-36 63,-48 26,-12 55,-18 89,-18 29,0 56,6 78,16 23,10 43,25 59,42 16,18 28,40 36,65 8,24 12,51 12,79 0,11 0,21 -1,31 -1,10 -2,18 -3,24l-271 0zm166 -81c-1,-26 -8,-47 -22,-63 -13,-16 -32,-24 -56,-24 -27,0 -48,7 -62,23 -14,15 -22,36 -25,64l165 0zm-720 -166c8,-1 15,-3 23,-3 7,-1 16,-2 25,-2 9,0 18,1 25,2 7,0 14,2 22,3 1,3 3,7 4,12 2,5 3,11 4,16 1,6 2,12 3,17 1,6 1,10 2,14 5,-8 12,-16 19,-24 8,-9 17,-16 27,-22 10,-7 21,-12 34,-16 12,-4 26,-7 42,-7 48,0 84,14 108,40 24,26 36,67 36,123l0 270c-19,3 -39,5 -58,5 -19,0 -38,-2 -58,-5l0 -239c0,-29 -4,-52 -13,-68 -9,-15 -25,-23 -47,-23 -10,0 -19,1 -29,4 -10,2 -19,8 -26,16 -8,8 -15,19 -20,33 -5,14 -7,32 -7,55l0 222c-20,3 -39,5 -58,5 -19,0 -38,-2 -58,-5l0 -423zm-435 0c20,-3 39,-5 58,-5 19,0 39,2 58,5l0 224c0,23 2,41 6,55 3,15 8,26 16,35 7,8 16,14 27,18 11,3 24,5 39,5 20,0 37,-2 50,-6l0 -331c20,-3 39,-5 58,-5 19,0 38,2 58,5l0 406c-18,6 -41,12 -70,18 -28,6 -58,9 -89,9 -28,0 -54,-3 -80,-7 -26,-4 -48,-14 -68,-28 -19,-14 -34,-35 -46,-62 -11,-27 -17,-63 -17,-109l0 -227zm-288 -63l-147 0c-3,-17 -5,-34 -5,-52 0,-17 2,-33 5,-50l413 0c3,17 5,33 5,50 0,18 -2,35 -5,52l-146 0 0 486c-10,1 -20,2 -30,3 -9,0 -19,1 -28,1 -10,0 -19,0 -30,-1 -11,0 -21,-2 -32,-3l0 -486zm-331 152l-54 0c-2,-8 -3,-15 -4,-23 -1,-8 -1,-15 -1,-22 0,-15 1,-30 5,-44l168 0 0 423c-20,3 -39,5 -57,5 -18,0 -37,-2 -57,-5l0 -334zm-17 -160c-3,-18 -5,-37 -5,-55 0,-17 2,-35 5,-54 10,-2 19,-3 30,-4 11,-1 20,-1 29,-1 9,0 19,0 30,1 11,1 21,2 31,4 1,9 2,18 3,27 0,9 1,18 1,27 0,9 -1,18 -1,27 -1,10 -2,19 -3,28 -10,2 -20,3 -30,3 -11,1 -21,1 -30,1 -9,0 -19,0 -29,-1 -11,0 -21,-1 -31,-3zm-476 160l-53 0 -4 -17 152 -195 19 0 0 123 99 0c2,8 3,16 3,22 1,7 1,14 1,21 0,7 0,15 -1,22 0,7 -1,15 -3,24l-99 0 0 165c0,17 2,31 4,41 3,11 7,19 12,25 5,6 12,10 19,12 8,2 17,3 27,3 9,0 17,0 24,-2 8,-1 15,-2 21,-3 4,10 7,21 8,32 2,11 3,21 3,30 0,6 0,11 0,15 -1,4 -1,8 -2,12 -25,6 -51,9 -77,9 -50,0 -88,-12 -114,-35 -26,-23 -39,-61 -39,-113l0 -191zm-141 234c7,11 12,24 17,38 4,15 6,32 6,51 -22,9 -42,14 -61,17 -19,2 -39,4 -60,4 -35,0 -66,-6 -92,-17 -26,-11 -48,-27 -65,-46 -17,-20 -30,-43 -39,-70 -9,-27 -13,-56 -13,-88 0,-31 4,-60 13,-87 8,-26 21,-50 38,-70 17,-20 39,-36 64,-47 26,-12 55,-18 89,-18 12,0 23,1 33,1 10,1 20,2 29,4 10,1 19,3 28,6 9,3 20,6 31,11 0,12 -1,26 -5,42 -3,15 -8,30 -15,44 -17,-5 -31,-9 -43,-11 -12,-2 -26,-3 -42,-3 -34,0 -59,11 -77,34 -17,22 -25,53 -25,94 0,44 9,76 27,96 19,21 44,31 76,31 8,0 15,-1 22,-1 7,0 14,-1 20,-2 7,-1 13,-3 20,-5 7,-2 15,-5 24,-8zm-485 -94c-7,-1 -14,-2 -21,-3 -8,-1 -15,-1 -21,-1 -27,0 -48,5 -63,14 -16,10 -24,25 -24,46 0,15 3,26 9,33 6,8 14,13 22,17 9,3 18,6 27,6 10,1 18,2 25,2 8,0 16,-1 25,-2 8,-2 15,-3 21,-4l0 -108zm0 -84c0,-13 -2,-24 -7,-32 -4,-8 -10,-15 -18,-19 -7,-5 -17,-8 -28,-10 -11,-1 -24,-2 -37,-2 -30,0 -61,6 -94,17 -8,-14 -13,-27 -17,-40 -4,-12 -6,-27 -6,-45 24,-8 48,-14 72,-18 24,-4 46,-6 67,-6 57,0 101,14 133,41 32,28 48,71 48,131l0 245c-20,6 -43,12 -70,17 -27,6 -58,9 -92,9 -28,0 -54,-3 -77,-8 -23,-5 -43,-13 -59,-24 -17,-12 -30,-26 -39,-44 -9,-18 -13,-40 -13,-67 0,-26 5,-48 17,-65 11,-18 25,-32 43,-43 18,-11 37,-18 59,-23 22,-4 44,-7 65,-7 16,0 34,1 53,3l0 -10zm-578 102c2,33 14,56 34,71 21,15 48,22 82,22 19,0 37,-2 57,-5 19,-4 38,-9 55,-15 6,11 11,24 16,39 4,15 6,32 7,49 -43,16 -91,25 -144,25 -39,0 -73,-6 -101,-17 -28,-11 -51,-26 -69,-45 -17,-19 -30,-42 -39,-69 -8,-27 -12,-56 -12,-88 0,-31 4,-60 13,-87 8,-27 21,-51 38,-71 18,-20 39,-36 64,-48 26,-12 55,-18 89,-18 29,0 55,6 78,16 23,10 43,25 59,42 16,18 28,40 36,65 8,24 12,51 12,79 0,11 0,21 -1,31 -1,10 -2,18 -3,24l-271 0zm166 -81c-1,-26 -8,-47 -22,-63 -13,-16 -32,-24 -56,-24 -27,0 -48,7 -62,23 -14,15 -22,36 -25,64l165 0zm-2101 -381c0,2 0,3 0,5 0,11 0,21 0,32l0 108 0 267c-10,-6 -15,-12 -28,-17 -10,-4 -22,-7 -33,-8 -15,-2 -27,0 -40,3 -24,6 -32,13 -50,27 -19,18 -30,43 -34,70 -6,88 70,142 146,120 24,-6 48,-26 61,-46 10,-15 16,-32 18,-52l0 -243c1,-36 1,-71 1,-107 50,4 222,-75 307,-45l-1 108 0 77 0 33 0 13 0 2 0 0 0 1c0,0 0,0 0,0 0,0 0,0 0,0 -13,-5 -19,-11 -38,-14 -15,-2 -30,-1 -44,3 -48,15 -76,70 -61,117 7,22 20,38 37,50 27,19 65,22 98,5 5,-3 8,-5 12,-9 17,-12 27,-26 33,-47 2,-7 3,-22 4,-40l0 -128 0 -1 0 -2 0 -29 0 -77 0 -62 0 -62 0 -39c0,-19 0,-37 0,-55 0,-93 -122,88 -383,43 -2,0 -3,-1 -5,-1zm-1418 594l175 0c38,0 68,30 68,68l0 0c0,37 -30,68 -68,68l-175 0c-37,0 -68,-31 -68,-68l0 0c0,-38 31,-68 68,-68zm151 -273l175 0c37,0 68,31 68,68l0 0c0,38 -31,68 -68,68l-175 0c-38,0 -68,-30 -68,-68l0 0c0,-37 30,-68 68,-68zm-412 0l225 0c38,0 69,31 69,68l0 0c0,38 -31,68 -69,68l-225 0c-37,0 -68,-30 -68,-68l0 0c0,-37 31,-68 68,-68zm1585 534c-1,5 -3,10 -6,14l-400 572c0,0 -1,0 -1,0 -35,49 -110,56 -169,14 -59,-41 -79,-114 -45,-164 0,0 0,0 0,-1l401 -571c2,-5 6,-8 10,-10 29,30 62,59 98,84 35,25 73,46 112,62zm568 -1034c256,179 318,532 139,787 -179,256 -532,318 -788,139 -255,-179 -318,-531 -138,-787 179,-256 531,-318 787,-139zm-55 79c212,149 263,441 115,653 -149,212 -441,264 -653,115 -213,-148 -264,-441 -116,-653 149,-212 441,-264 654,-115zm-1432 149l66 0c38,0 68,30 68,68l0 0c0,37 -30,68 -68,68l-66 0c-37,0 -68,-31 -68,-68l0 0c0,-38 31,-68 68,-68zm-373 0l196 0c38,0 68,30 68,68l0 0c0,37 -30,68 -68,68l-196 0c-37,0 -68,-31 -68,-68l0 0c0,-38 31,-68 68,-68zm166 -273l155 0c37,0 68,31 68,68l0 0c0,38 -31,68 -68,68l-155 0c-37,0 -68,-30 -68,-68l0 0c0,-37 31,-68 68,-68z"/>
 </g>
</svg>
