<?xml version="1.0" encoding="UTF-8"?>
<!DOCTYPE svg PUBLIC "-//W3C//DTD SVG 1.1//EN" "http://www.w3.org/Graphics/SVG/1.1/DTD/svg11.dtd">
<!-- Creator: CorelDRAW X7 -->
<svg xmlns="http://www.w3.org/2000/svg" xml:space="preserve" width="144px" height="107px" version="1.1" style="shape-rendering:geometricPrecision; text-rendering:geometricPrecision; image-rendering:optimizeQuality; fill-rule:evenodd; clip-rule:evenodd"
viewBox="0 0 1440 1070"
 xmlns:xlink="http://www.w3.org/1999/xlink">
 <defs>
  <style type="text/css">
   <![CDATA[
    .fil0 {fill:url(#id0)}
   ]]>
  </style>
  <linearGradient id="id0" gradientUnits="userSpaceOnUse" x1="124.183" y1="374.097" x2="1315.82" y2="695.905">
   <stop offset="0" style="stop-opacity:1; stop-color:#58BA6E"/>
   <stop offset="1" style="stop-opacity:1; stop-color:#4CA481"/>
  </linearGradient>
 </defs>
 <g id="Layer_x0020_1">
  <metadata id="CorelCorpID_0Corel-Layer"/>
  <path class="fil0" d="M1191 177c137,96 170,285 74,422 -96,137 -285,171 -422,75 -137,-97 -170,-286 -74,-423 96,-137 285,-170 422,-74zm-727 -24l230 0c139,-166 385,-201 566,-74 191,134 237,397 103,589 -117,167 -334,224 -514,145l53 -75c138,51 299,5 388,-122 105,-150 69,-358 -82,-464 -151,-105 -358,-68 -464,82 -88,127 -77,294 19,406l-53 76c-15,-16 -29,-34 -42,-52l-304 0c-20,0 -37,-16 -37,-36l0 0c0,-20 17,-37 37,-37l264 0 26 0c20,0 37,-16 37,-36l0 0c0,-20 -17,-37 -37,-37l-49 0c-1,0 -1,-1 -1,-1 -3,1 -7,1 -10,1l-149 0c-21,0 -37,-16 -37,-36l0 0c0,-21 16,-37 37,-37l149 0c0,0 0,0 1,0l0 0 5 0c20,0 36,-16 36,-37l0 0c0,-20 -16,-36 -36,-36l-3 0 -69 0c-21,0 -37,-17 -37,-37l0 0c0,-20 16,-36 37,-36l85 0 9 0 16 0c20,0 37,-17 37,-37l0 0c0,-18 -14,-33 -31,-36l0 0 -180 0c-20,0 -37,-17 -37,-37l0 0c0,-20 17,-36 37,-36zm473 120c0,1 0,1 0,2 0,6 0,12 0,18l0 58 0 143c-5,-3 -8,-6 -15,-9 -6,-3 -12,-4 -18,-5 -8,-1 -15,0 -21,2 -13,3 -17,7 -27,14 -10,10 -16,23 -18,38 -3,47 37,76 78,64 13,-3 25,-14 33,-24 5,-8 8,-17 9,-28l1 -131c0,-19 0,-38 0,-57 27,2 119,-40 164,-24l0 58 0 41 0 18 0 7 0 1 0 0 0 0c0,0 0,0 0,1 0,0 0,0 0,0 -7,-3 -10,-6 -21,-8 -7,-1 -16,-1 -23,2 -26,7 -41,37 -33,62 4,12 11,21 20,27 15,10 35,12 53,3 2,-2 4,-3 6,-5 9,-7 14,-14 18,-25 1,-4 2,-12 2,-22l0 -68 0 -1 0 -1 0 -16 0 -41 0 -33 0 -33 0 -21c0,-10 0,-20 0,-30 0,-49 -66,47 -206,23 0,0 -1,0 -2,0zm-761 318l94 0c20,0 37,17 37,37l0 0c0,20 -17,36 -37,36l-94 0c-20,0 -36,-16 -36,-36l0 0c0,-20 16,-37 36,-37zm81 -146l94 0c20,0 37,16 37,37l0 0c0,20 -17,36 -37,36l-94 0c-20,0 -36,-16 -36,-36l0 0c0,-21 16,-37 36,-37zm-220 0l120 0c20,0 37,16 37,37l0 0c0,20 -17,36 -37,36l-120 0c-21,0 -37,-16 -37,-36l0 0c0,-21 16,-37 37,-37zm849 286c0,3 -1,5 -3,8l-214 306c-1,0 -1,0 -1,0 -18,27 -59,30 -91,8 -31,-22 -42,-61 -23,-88 -1,0 -1,0 0,0l214 -307c2,-2 4,-4 6,-5 15,16 33,31 52,45 19,13 40,25 60,33zm-492 -432l35 0c20,0 37,16 37,36l0 0c0,20 -17,37 -37,37l-35 0c-20,0 -37,-17 -37,-37l0 0c0,-20 17,-36 37,-36zm-200 0l105 0c20,0 36,16 36,36l0 0c0,20 -16,37 -36,37l-105 0c-20,0 -37,-17 -37,-37l0 0c0,-20 17,-36 37,-36zm89 -146l83 0c20,0 36,16 36,36l0 0c0,20 -16,37 -36,37l-83 0c-20,0 -37,-17 -37,-37l0 0c0,-20 17,-36 37,-36zm878 66c114,80 142,237 62,350 -80,114 -236,142 -350,62 -114,-79 -142,-236 -62,-350 80,-114 237,-142 350,-62z"/>
 </g>
</svg>
