<?xml version="1.0" encoding="UTF-8"?>
<!DOCTYPE svg PUBLIC "-//W3C//DTD SVG 1.1//EN" "http://www.w3.org/Graphics/SVG/1.1/DTD/svg11.dtd">
<!-- Creator: CorelDRAW X7 -->
<svg xmlns="http://www.w3.org/2000/svg" xml:space="preserve" width="256px" height="190px" version="1.1" style="shape-rendering:geometricPrecision; text-rendering:geometricPrecision; image-rendering:optimizeQuality; fill-rule:evenodd; clip-rule:evenodd"
viewBox="0 0 2560 1900"
 xmlns:xlink="http://www.w3.org/1999/xlink">
 <defs>
  <style type="text/css">
   <![CDATA[
    .fil0 {fill:url(#id0)}
   ]]>
  </style>
  <linearGradient id="id0" gradientUnits="userSpaceOnUse" x1="219.461" y1="663.581" x2="2340.54" y2="1236.42">
   <stop offset="0" style="stop-opacity:1; stop-color:#58BA6E"/>
   <stop offset="1" style="stop-opacity:1; stop-color:#4CA481"/>
  </linearGradient>
 </defs>
 <g id="Layer_x0020_1">
  <metadata id="CorelCorpID_0Corel-Layer"/>
  <path class="fil0" d="M2118 312c244,171 304,508 133,752 -171,244 -508,303 -752,133 -244,-171 -303,-508 -132,-752 171,-244 507,-303 751,-133zm-1294 -42l409 0c248,-296 686,-358 1008,-132 340,238 423,708 184,1048 -209,299 -595,399 -916,259l94 -135c247,92 533,10 691,-216 188,-268 123,-637 -145,-825 -268,-188 -638,-122 -826,146 -158,225 -137,522 34,723l-95 134c-27,-29 -52,-60 -74,-92l-542 0c-36,0 -65,-29 -65,-65l0 0c0,-36 29,-65 65,-65l470 0 47 0c35,0 65,-29 65,-65l0 0c0,-36 -30,-65 -65,-65l-89 0c0,-1 0,-2 0,-3 -6,2 -12,3 -18,3l-266 0c-36,0 -65,-29 -65,-65l0 0c0,-36 29,-65 65,-65l266 0c0,0 0,0 1,0l0 0 9 0c36,0 65,-29 65,-65l0 0c0,-36 -29,-65 -65,-65l-4 0 -125 0c-35,0 -65,-30 -65,-65l0 0c0,-36 30,-65 65,-65l153 0 15 0 30 0c35,0 65,-30 65,-65l0 0c0,-33 -24,-60 -55,-65l0 0 -321 0c-35,0 -65,-30 -65,-65l0 0c0,-36 30,-65 65,-65zm842 213c0,2 0,3 0,5 0,10 0,20 0,31l0 103 0 254c-9,-5 -15,-11 -26,-15 -11,-5 -21,-8 -32,-9 -14,-1 -26,0 -39,4 -22,5 -30,12 -47,25 -18,17 -29,41 -33,67 -5,84 67,136 140,115 22,-7 45,-25 58,-44 9,-14 16,-31 17,-50l1 -232c0,-34 0,-68 0,-102 48,4 212,-72 293,-43l0 103 0 73 0 32 0 12 0 2 0 1 0 0c0,0 0,0 0,1 0,0 0,0 -1,0 -13,-5 -18,-11 -36,-14 -14,-2 -29,-1 -42,3 -46,14 -72,67 -58,112 6,20 19,36 35,47 26,19 62,22 94,5 4,-2 7,-5 11,-8 16,-12 26,-26 32,-46 1,-6 3,-20 3,-38l0 -122 0 -1 0 -1 0 -28 0 -74 0 -59 0 -59 0 -38c0,-17 0,-34 0,-52 0,-88 -116,84 -366,41 -1,0 -2,0 -4,-1zm-1353 567l167 0c35,0 65,29 65,65l0 0c0,36 -30,65 -65,65l-167 0c-36,0 -65,-29 -65,-65l0 0c0,-36 29,-65 65,-65zm143 -260l168 0c35,0 65,29 65,65l0 0c0,36 -30,65 -65,65l-168 0c-35,0 -65,-29 -65,-65l0 0c0,-36 30,-65 65,-65zm-393 0l215 0c36,0 66,29 66,65l0 0c0,36 -30,65 -66,65l-215 0c-35,0 -65,-29 -65,-65l0 0c0,-36 30,-65 65,-65zm1513 510c-1,4 -3,9 -5,13l-383 545c0,1 0,1 0,0 -33,48 -106,54 -162,14 -56,-39 -75,-109 -42,-156 0,0 -1,-1 0,-1l382 -546c3,-4 6,-7 10,-9 28,29 59,56 93,80 34,24 70,44 107,60zm-877 -770l63 0c36,0 65,29 65,65l0 0c0,35 -29,65 -65,65l-63 0c-36,0 -65,-30 -65,-65l0 0c0,-36 29,-65 65,-65zm-356 0l187 0c36,0 65,29 65,65l0 0c0,35 -29,65 -65,65l-187 0c-35,0 -65,-30 -65,-65l0 0c0,-36 30,-65 65,-65zm159 -260l147 0c36,0 65,29 65,65l0 0c0,35 -29,65 -65,65l-147 0c-36,0 -65,-30 -65,-65l0 0c0,-36 29,-65 65,-65zm1564 118c202,142 251,421 110,623 -142,203 -421,252 -624,110 -203,-142 -252,-421 -110,-623 142,-203 421,-252 624,-110z"/>
 </g>
</svg>
