<?xml version="1.0" encoding="UTF-8"?>
<!DOCTYPE svg PUBLIC "-//W3C//DTD SVG 1.1//EN" "http://www.w3.org/Graphics/SVG/1.1/DTD/svg11.dtd">
<!-- Creator: CorelDRAW X7 -->
<svg xmlns="http://www.w3.org/2000/svg" xml:space="preserve" width="48px" height="36px" version="1.1" style="shape-rendering:geometricPrecision; text-rendering:geometricPrecision; image-rendering:optimizeQuality; fill-rule:evenodd; clip-rule:evenodd"
viewBox="0 0 480 360"
 xmlns:xlink="http://www.w3.org/1999/xlink">
 <defs>
  <style type="text/css">
   <![CDATA[
    .fil0 {fill:url(#id0)}
   ]]>
  </style>
  <linearGradient id="id0" gradientUnits="userSpaceOnUse" x1="41.3052" y1="126.337" x2="438.695" y2="233.657">
   <stop offset="0" style="stop-opacity:1; stop-color:#58BA6E"/>
   <stop offset="1" style="stop-opacity:1; stop-color:#4CA481"/>
  </linearGradient>
 </defs>
 <g id="Layer_x0020_1">
  <metadata id="CorelCorpID_0Corel-Layer"/>
  <path class="fil0" d="M397 61c46,32 57,95 25,140 -32,46 -95,57 -141,25 -46,-32 -57,-95 -25,-141 32,-45 95,-56 141,-24zm-242 -8l76 0c47,-56 129,-67 189,-25 64,45 79,132 35,196 -40,56 -112,75 -172,49l18 -25c46,17 99,1 129,-41 35,-50 23,-119 -27,-155 -50,-35 -120,-23 -155,28 -29,42 -26,98 6,135l-17 25c-5,-5 -10,-11 -14,-17l-102 0c-6,0 -12,-5 -12,-12l0 0c0,-7 6,-12 12,-12l88 0 9 0c7,0 12,-6 12,-12l0 0c0,-7 -5,-13 -12,-13l-17 0c0,0 0,0 0,0 -1,0 -2,0 -3,0l-50 0c-7,0 -12,-5 -12,-12l0 0c0,-7 5,-12 12,-12l50 0c0,0 0,0 0,0l0 0 2 0c7,0 12,-5 12,-12l0 0c0,-7 -5,-12 -12,-12l-1 0 -23 0c-7,0 -12,-6 -12,-13l0 0c0,-6 5,-12 12,-12l28 0 3 0 6 0c6,0 12,-5 12,-12l0 0c0,-6 -5,-11 -10,-12l0 0 -60 0c-7,0 -13,-6 -13,-12l0 0c0,-7 6,-12 13,-12zm157 40c0,0 0,0 0,0 0,2 0,4 0,6l0 20 0 47c-1,-1 -2,-2 -5,-3 -2,-1 -4,-1 -6,-1 -2,-1 -4,0 -7,0 -4,1 -5,3 -9,5 -3,3 -5,8 -6,13 -1,15 13,25 26,21 5,-1 9,-5 11,-8 2,-3 3,-6 3,-9l1 -44c0,-6 0,-13 0,-19 9,1 39,-14 54,-8l0 19 0 14 0 6 0 2 0 1 0 0 0 0c0,0 0,0 0,0 0,0 0,0 0,0 -2,-1 -3,-2 -6,-3 -3,0 -6,0 -8,1 -9,2 -14,12 -11,21 1,4 3,7 6,9 5,3 12,4 18,1 1,-1 1,-1 2,-2 3,-2 5,-5 6,-8 0,-2 1,-4 1,-8l0 -22 0 -1 0 0 0 -5 0 -14 0 -11 0 -11 0 -7c0,-3 0,-7 0,-10 0,-17 -22,16 -69,8 0,0 0,0 -1,0zm-253 106l31 0c7,0 12,5 12,12l0 0c0,7 -5,12 -12,12l-31 0c-7,0 -12,-5 -12,-12l0 0c0,-7 5,-12 12,-12zm27 -49l31 0c7,0 12,5 12,12l0 0c0,7 -5,12 -12,12l-31 0c-7,0 -12,-5 -12,-12l0 0c0,-7 5,-12 12,-12zm-74 0l40 0c7,0 13,5 13,12l0 0c0,7 -6,12 -13,12l-40 0c-7,0 -12,-5 -12,-12l0 0c0,-7 5,-12 12,-12zm283 96c0,0 0,1 -1,2l-71 102c0,0 0,0 0,0 -6,9 -20,10 -31,3 -10,-8 -14,-21 -7,-30 -1,0 -1,0 -1,0l72 -102c1,-1 1,-1 2,-2 5,6 11,11 17,15 7,5 14,9 20,12zm-164 -145l12 0c7,0 12,6 12,12l0 0c0,7 -5,13 -12,13l-12 0c-7,0 -12,-6 -12,-13l0 0c0,-6 5,-12 12,-12zm-66 0l35 0c6,0 12,6 12,12l0 0c0,7 -6,13 -12,13l-35 0c-7,0 -13,-6 -13,-13l0 0c0,-6 6,-12 13,-12zm29 -48l28 0c6,0 12,5 12,12l0 0c0,6 -6,12 -12,12l-28 0c-7,0 -12,-6 -12,-12l0 0c0,-7 5,-12 12,-12zm293 22c38,26 47,79 21,116 -27,38 -79,48 -117,21 -38,-26 -47,-79 -21,-117 27,-38 79,-47 117,-20z"/>
 </g>
</svg>
