<?xml version="1.0" encoding="UTF-8"?>
<!DOCTYPE svg PUBLIC "-//W3C//DTD SVG 1.1//EN" "http://www.w3.org/Graphics/SVG/1.1/DTD/svg11.dtd">
<!-- Creator: CorelDRAW X7 -->
<svg xmlns="http://www.w3.org/2000/svg" xml:space="preserve" width="512px" height="100px" version="1.1" style="shape-rendering:geometricPrecision; text-rendering:geometricPrecision; image-rendering:optimizeQuality; fill-rule:evenodd; clip-rule:evenodd"
viewBox="0 0 5120 1000"
 xmlns:xlink="http://www.w3.org/1999/xlink">
 <defs>
  <style type="text/css">
   <![CDATA[
    .fil0 {fill:url(#id0)}
   ]]>
  </style>
  <linearGradient id="id0" gradientUnits="userSpaceOnUse" x1="1039.9" y1="-339.863" x2="4080.1" y2="1339.86">
   <stop offset="0" style="stop-opacity:1; stop-color:#58BA6E"/>
   <stop offset="1" style="stop-opacity:1; stop-color:#0B1ED1"/>
  </linearGradient>
 </defs>
 <g id="Layer_x0020_1">
  <metadata id="CorelCorpID_0Corel-Layer"/>
  <path class="fil0" d="M433 144l214 0c130,-155 359,-188 527,-69 179,125 222,370 97,549 -109,156 -311,209 -480,135l50 -70c129,48 279,5 362,-113 98,-141 64,-334 -77,-433 -140,-98 -334,-64 -432,77 -83,118 -72,273 17,378l-49 71c-14,-15 -27,-32 -39,-49l-284 0c-19,0 -34,-15 -34,-34l0 0c0,-18 15,-34 34,-34l247 0 24 0c19,0 34,-15 34,-34l0 0c0,-18 -15,-34 -34,-34l-46 0c0,0 -1,-1 -1,-1 -3,1 -6,1 -9,1l-140 0c-18,0 -34,-15 -34,-34l0 0c0,-19 16,-34 34,-34l140 0c0,0 0,0 0,0l0 0 5 0c19,0 34,-15 34,-34l0 0c0,-19 -15,-34 -34,-34l-2 0 -65 0c-19,0 -34,-15 -34,-34l0 0c0,-19 15,-34 34,-34l80 0 8 0 15 0c19,0 34,-16 34,-34l0 0c0,-17 -12,-31 -29,-34l1 0 -168 0c-19,0 -34,-16 -34,-34l0 0c0,-19 15,-34 34,-34zm1127 137c12,-2 23,-3 33,-4 11,-1 22,-1 35,-1 15,0 30,1 45,4 14,2 27,7 39,14 12,7 21,17 28,28 8,12 11,27 11,46 0,11 -1,20 -4,28 -3,9 -6,16 -10,22 -4,7 -9,12 -14,16 -5,5 -9,9 -14,11l-7 5 72 124c-6,1 -11,1 -17,2 -6,0 -13,0 -19,0 -10,0 -20,0 -30,-2l-77 -137 10 -4c3,-2 8,-5 13,-8 6,-3 11,-6 16,-11 5,-4 9,-10 13,-16 4,-7 5,-14 5,-23 0,-17 -5,-30 -14,-38 -10,-8 -23,-12 -38,-12 -6,0 -12,1 -17,1l0 248c-5,1 -10,1 -14,2 -5,0 -10,0 -15,0 -4,0 -9,0 -14,0 -6,0 -11,-1 -16,-2l0 -293zm3372 -5c5,-1 10,-2 15,-2 5,0 9,0 14,0 5,0 9,0 14,0 5,0 10,1 15,2l0 112c2,-2 4,-5 8,-9 3,-3 7,-6 11,-10 5,-3 10,-5 17,-8 7,-2 14,-3 22,-3 24,0 42,7 54,20 12,13 18,33 18,62l0 135c-5,1 -10,1 -15,1 -5,1 -9,1 -14,1 -5,0 -9,0 -14,-1 -5,0 -10,0 -15,-1l0 -120c0,-15 -2,-26 -7,-34 -5,-8 -12,-12 -24,-12 -4,0 -9,1 -14,2 -5,2 -9,4 -13,8 -4,4 -7,10 -10,17 -3,7 -4,16 -4,28l0 111c-5,1 -10,1 -15,1 -5,1 -9,1 -14,1 -5,0 -9,0 -14,-1 -5,0 -10,0 -15,-1l0 -299zm-41 249c3,5 6,11 8,19 2,7 3,15 3,25 -11,4 -21,7 -30,8 -10,2 -20,2 -30,2 -18,0 -33,-2 -46,-8 -14,-6 -24,-13 -33,-23 -9,-10 -15,-22 -19,-35 -5,-14 -7,-28 -7,-44 0,-16 2,-30 6,-43 5,-14 11,-25 20,-35 8,-11 19,-18 32,-24 13,-6 27,-9 44,-9 6,0 12,0 17,1 5,0 10,0 14,1 5,1 10,2 14,4 5,1 10,3 16,5 0,6 -1,13 -3,21 -1,8 -4,15 -7,22 -9,-3 -16,-4 -22,-5 -6,-1 -13,-2 -21,-2 -17,0 -30,6 -38,17 -9,11 -13,27 -13,47 0,22 5,38 14,48 9,10 22,15 37,15 5,0 8,0 12,0 3,0 6,0 10,-1 3,0 6,-1 10,-2 3,-1 7,-3 12,-4zm-314 -162c4,-1 8,-1 12,-2 3,0 7,0 12,0 4,0 8,0 12,0 4,1 8,2 11,3 1,1 2,3 3,5 0,3 1,6 2,9 0,2 1,5 1,8 0,3 1,5 1,7 6,-8 13,-16 22,-22 9,-7 20,-10 33,-10 3,0 6,0 9,0 4,0 6,1 8,1 1,3 1,6 1,10 0,3 1,7 1,11 0,4 -1,9 -1,15 0,5 -1,10 -2,15 -3,0 -7,0 -10,0 -4,0 -6,0 -7,0 -5,0 -10,0 -16,1 -5,1 -11,3 -16,8 -5,4 -9,10 -13,18 -3,8 -5,20 -5,34l0 101c-5,1 -10,1 -15,1 -4,1 -9,1 -14,1 -5,0 -9,0 -14,-1 -5,0 -10,0 -15,-1l0 -212zm-89 115c-3,-1 -7,-1 -11,-2 -3,0 -7,0 -10,0 -13,0 -24,2 -31,7 -8,4 -12,12 -12,23 0,7 1,12 4,16 3,4 7,7 11,8 4,2 9,3 14,4 4,0 9,0 12,0 4,0 8,0 12,-1 4,0 8,-1 11,-2l0 -53zm0 -43c0,-6 -1,-11 -3,-15 -2,-5 -5,-8 -9,-10 -4,-2 -9,-4 -14,-5 -6,-1 -12,-1 -19,-1 -15,0 -30,3 -47,9 -4,-8 -7,-14 -9,-20 -1,-7 -2,-14 -2,-23 12,-4 24,-7 36,-9 12,-2 23,-3 33,-3 28,0 51,7 66,21 16,13 24,35 24,65l0 123c-9,3 -21,5 -34,8 -14,3 -29,4 -47,4 -13,0 -26,-1 -38,-3 -11,-3 -21,-7 -30,-13 -8,-5 -14,-13 -19,-22 -4,-9 -6,-20 -6,-33 0,-13 2,-24 8,-33 5,-9 13,-16 22,-21 8,-5 18,-9 29,-11 11,-3 22,-4 33,-4 8,0 16,1 26,1l0 -5zm-289 52c1,16 7,28 17,35 11,7 24,11 41,11 10,0 19,-1 29,-3 9,-1 19,-4 27,-7 3,5 6,12 8,20 2,7 3,15 4,24 -22,8 -46,12 -72,12 -20,0 -37,-2 -51,-8 -14,-5 -25,-13 -34,-23 -9,-9 -15,-21 -20,-34 -4,-13 -6,-28 -6,-44 0,-15 2,-30 7,-44 4,-13 10,-25 19,-35 9,-10 19,-18 32,-24 13,-6 27,-9 44,-9 15,0 28,3 39,8 12,5 22,12 30,21 8,9 14,20 18,32 4,13 6,26 6,40 0,5 0,10 -1,15 0,6 -1,10 -1,13l-136 0zm83 -41c0,-13 -4,-24 -11,-32 -6,-8 -16,-12 -28,-12 -13,0 -24,4 -31,12 -7,7 -11,18 -12,32l82 0zm-301 -8c-9,-3 -18,-7 -25,-11 -7,-5 -14,-10 -19,-15 -5,-6 -9,-13 -12,-21 -3,-9 -4,-18 -4,-30 0,-14 2,-26 7,-37 5,-10 12,-19 20,-26 9,-8 20,-13 32,-17 12,-3 26,-5 41,-5 14,0 27,1 39,3 12,3 25,6 38,11 -1,16 -6,31 -13,47 -4,-2 -8,-4 -12,-5 -4,-2 -9,-3 -14,-4 -4,-2 -10,-2 -16,-3 -6,-1 -13,-1 -20,-1 -5,0 -10,0 -14,1 -5,1 -9,2 -13,5 -4,2 -7,5 -10,9 -2,4 -3,10 -3,17 0,5 1,10 3,13 1,4 4,7 7,10 4,2 7,5 11,6 4,2 9,4 13,6l24 9c10,4 20,8 28,13 9,4 16,9 22,16 6,6 10,14 13,23 4,9 5,20 5,34 0,14 -2,26 -7,38 -5,11 -13,21 -22,29 -10,8 -21,15 -35,19 -14,5 -31,7 -49,7 -9,0 -17,0 -24,-1 -7,0 -14,-1 -20,-2 -7,-1 -13,-3 -19,-5 -6,-2 -13,-4 -20,-7 1,-8 3,-16 5,-25 2,-8 4,-17 7,-25 12,4 23,8 33,10 10,2 21,3 32,3 17,0 31,-3 40,-9 10,-7 15,-16 15,-29 0,-7 -1,-12 -3,-17 -3,-4 -6,-8 -9,-11 -4,-3 -8,-5 -13,-7 -4,-2 -9,-4 -14,-6l-25 -10zm-268 44c-16,-4 -28,-10 -36,-19 -9,-9 -13,-21 -13,-39 0,-20 7,-36 22,-48 15,-12 35,-18 61,-18 11,0 21,1 31,3 11,2 21,5 32,9 -1,7 -2,14 -4,22 -2,7 -5,14 -8,20 -7,-3 -14,-5 -22,-7 -8,-2 -16,-3 -25,-3 -9,0 -16,1 -21,4 -5,3 -8,7 -8,14 0,6 2,10 5,12 4,3 9,5 16,7l24 7c7,2 14,5 20,8 6,3 12,7 16,12 4,4 8,10 10,17 3,7 4,15 4,25 0,10 -2,19 -7,28 -4,9 -10,16 -18,23 -8,6 -18,11 -29,15 -12,3 -25,5 -39,5 -7,0 -13,0 -18,0 -5,-1 -11,-1 -16,-2 -5,-1 -10,-2 -15,-4 -5,-1 -10,-3 -16,-5 1,-7 2,-15 4,-22 2,-8 5,-15 8,-22 9,3 18,6 26,8 8,1 16,2 25,2 4,0 8,0 12,-1 5,0 9,-2 13,-3 4,-2 7,-4 9,-7 3,-3 4,-7 4,-12 0,-6 -2,-11 -6,-14 -4,-2 -9,-5 -16,-7l-25 -8zm-219 5c1,16 6,28 17,35 10,7 24,11 41,11 9,0 18,-1 28,-3 10,-1 19,-4 28,-7 3,5 5,12 7,20 2,7 4,15 4,24 -21,8 -45,12 -72,12 -20,0 -36,-2 -50,-8 -14,-5 -26,-13 -35,-23 -9,-9 -15,-21 -19,-34 -5,-13 -7,-28 -7,-44 0,-15 2,-30 7,-44 4,-13 11,-25 19,-35 9,-10 19,-18 32,-24 13,-6 28,-9 44,-9 15,0 28,3 40,8 11,5 21,12 29,21 8,9 14,20 18,32 4,13 6,26 6,40 0,5 0,10 0,15 -1,6 -1,10 -2,13l-135 0zm82 -41c0,-13 -4,-24 -10,-32 -7,-8 -16,-12 -28,-12 -14,0 -24,4 -31,12 -7,7 -12,18 -13,32l82 0zm-360 -83c4,-1 8,-1 12,-2 4,0 8,0 13,0 4,0 8,0 12,0 3,1 7,1 11,2 1,1 1,3 2,6 1,3 1,5 2,8 1,3 1,6 1,9 1,2 1,5 1,7 3,-5 6,-9 10,-13 4,-4 8,-7 14,-11 5,-3 10,-6 16,-8 7,-2 14,-3 21,-3 24,0 42,7 54,20 13,13 19,33 19,62l0 134c-10,2 -20,3 -29,3 -10,0 -20,-1 -29,-3l0 -119c0,-15 -3,-26 -7,-34 -5,-8 -12,-12 -24,-12 -4,0 -9,1 -14,2 -5,2 -9,4 -13,8 -4,4 -7,10 -10,17 -2,7 -4,16 -4,28l0 110c-9,2 -19,3 -29,3 -9,0 -19,-1 -29,-3l0 -211zm-217 0c10,-2 20,-2 29,-2 10,0 19,0 29,2l0 112c0,11 1,20 3,28 2,7 4,13 8,17 4,4 8,7 14,9 5,2 11,2 19,2 10,0 18,0 25,-2l0 -166c10,-2 20,-2 29,-2 9,0 19,0 29,2l0 203c-9,3 -20,6 -35,9 -14,3 -29,4 -44,4 -14,0 -28,-1 -41,-3 -12,-2 -24,-7 -33,-14 -10,-7 -18,-17 -23,-31 -6,-14 -9,-32 -9,-54l0 -114zm-144 -32l-73 0c-2,-8 -3,-16 -3,-25 0,-9 1,-17 3,-25l206 0c2,8 3,16 3,25 0,9 -1,17 -3,25l-73 0 0 243c-5,1 -10,1 -15,2 -5,0 -9,0 -14,0 -5,0 -10,0 -15,0 -5,0 -11,-1 -16,-2l0 -243zm-165 76l-28 0c0,-3 -1,-7 -1,-11 -1,-4 -1,-8 -1,-11 0,-8 1,-15 2,-22l85 0 0 211c-10,2 -20,3 -29,3 -9,0 -18,-1 -28,-3l0 -167zm-9 -79c-1,-10 -2,-19 -2,-28 0,-9 1,-18 2,-27 5,-1 10,-2 15,-2 5,0 10,-1 15,-1 4,0 9,1 15,1 5,0 10,1 15,2 1,4 1,9 1,14 1,4 1,9 1,13 0,5 0,9 -1,14 0,4 0,9 -1,14 -5,0 -10,1 -15,1 -5,0 -10,1 -15,1 -4,0 -9,-1 -15,-1 -5,0 -10,-1 -15,-1zm-238 79l-27 0 -2 -8 77 -98 9 0 0 62 50 0c0,4 1,8 1,11 0,3 1,7 1,10 0,4 -1,8 -1,11 0,4 -1,8 -1,12l-50 0 0 83c0,9 1,15 2,21 2,5 4,9 6,12 3,3 6,5 10,6 4,1 8,2 13,2 4,0 8,-1 12,-1 4,-1 8,-2 11,-2 2,5 3,10 4,16 1,6 1,11 1,15 0,3 0,5 0,7 0,2 -1,4 -1,6 -12,3 -25,5 -39,5 -24,0 -43,-6 -56,-18 -14,-11 -20,-30 -20,-56l0 -96zm-70 118c3,5 6,11 8,19 2,7 3,15 3,25 -11,4 -21,7 -31,8 -9,2 -19,2 -29,2 -18,0 -34,-2 -47,-8 -13,-6 -23,-13 -32,-23 -9,-10 -15,-22 -19,-35 -5,-14 -7,-28 -7,-44 0,-16 2,-30 6,-43 5,-14 11,-25 20,-35 8,-11 19,-18 32,-24 12,-6 27,-9 44,-9 6,0 12,0 17,1 5,0 10,0 14,1 5,1 9,2 14,4 5,1 10,3 16,5 0,6 -1,13 -3,21 -1,8 -4,15 -8,22 -8,-3 -15,-4 -21,-5 -6,-1 -13,-2 -21,-2 -17,0 -30,6 -38,17 -9,11 -13,27 -13,47 0,22 4,38 14,48 9,10 22,15 37,15 4,0 8,0 12,0 3,0 6,0 10,-1 3,0 6,-1 10,-2 3,-1 7,-3 12,-4zm-243 -47c-3,-1 -7,-1 -11,-2 -4,0 -7,0 -10,0 -13,0 -24,2 -32,7 -7,4 -11,12 -11,23 0,7 1,12 4,16 3,4 7,7 11,8 4,2 9,3 14,4 4,0 8,0 12,0 4,0 8,0 12,-1 4,0 8,-1 11,-2l0 -53zm0 -43c0,-6 -1,-11 -3,-15 -3,-5 -6,-8 -9,-10 -4,-2 -9,-4 -14,-5 -6,-1 -12,-1 -19,-1 -15,0 -30,3 -47,9 -4,-8 -7,-14 -9,-20 -2,-7 -3,-14 -3,-23 12,-4 24,-7 36,-9 12,-2 24,-3 34,-3 28,0 50,7 66,21 16,13 24,35 24,65l0 123c-9,3 -21,5 -34,8 -14,3 -29,4 -47,4 -14,0 -26,-1 -38,-3 -11,-3 -21,-7 -30,-13 -8,-5 -14,-13 -19,-22 -4,-9 -7,-20 -7,-33 0,-13 3,-24 9,-33 5,-9 13,-16 21,-21 9,-5 19,-9 30,-11 11,-3 22,-4 33,-4 8,0 16,1 26,1l0 -5zm-289 52c1,16 7,28 17,35 10,7 24,11 41,11 9,0 19,-1 28,-3 10,-1 19,-4 28,-7 3,5 6,12 8,20 2,7 3,15 3,24 -21,8 -45,12 -71,12 -20,0 -37,-2 -51,-8 -14,-5 -25,-13 -34,-23 -9,-9 -16,-21 -20,-34 -4,-13 -6,-28 -6,-44 0,-15 2,-30 6,-44 5,-13 11,-25 20,-35 8,-10 19,-18 32,-24 12,-6 27,-9 44,-9 15,0 28,3 39,8 12,5 21,12 29,21 8,9 14,20 19,32 4,13 6,26 6,40 0,5 -1,10 -1,15 0,6 -1,10 -1,13l-136 0zm83 -41c-1,-13 -4,-24 -11,-32 -7,-8 -16,-12 -28,-12 -14,0 -24,4 -31,12 -7,7 -11,18 -13,32l83 0zm-1050 -190c0,0 0,1 0,2 0,5 0,11 0,16l0 54 0 133c-5,-2 -8,-5 -14,-8 -6,-2 -11,-4 -17,-4 -7,-1 -14,0 -20,2 -12,3 -16,6 -25,13 -9,9 -15,21 -17,35 -3,44 35,71 73,60 12,-3 24,-13 30,-23 5,-7 9,-16 10,-26l0 -122c0,-17 0,-35 0,-53 25,2 111,-38 153,-22l0 53 0 39 0 16 0 7 0 1 0 0 0 0c0,0 0,1 0,1 0,0 0,0 0,0 -7,-3 -9,-6 -19,-7 -7,-2 -15,-1 -22,1 -24,7 -38,35 -30,59 3,10 9,19 18,24 14,10 32,12 49,3 2,-1 4,-3 6,-4 9,-7 13,-14 17,-24 1,-3 1,-11 1,-20l0 -64 0 -1 0 0 0 -15 0 -38 0 -32 0 -30 0 -20c0,-9 0,-18 0,-27 0,-47 -60,43 -191,21 -1,0 -2,0 -2,0zm-709 296l87 0c19,0 34,16 34,34l0 0c0,19 -15,34 -34,34l-87 0c-19,0 -35,-15 -35,-34l0 0c0,-18 16,-34 35,-34zm75 -136l87 0c19,0 35,15 35,34l0 0c0,19 -16,34 -35,34l-87 0c-19,0 -34,-15 -34,-34l0 0c0,-19 15,-34 34,-34zm-206 0l113 0c18,0 34,15 34,34l0 0c0,19 -16,34 -34,34l-113 0c-19,0 -34,-15 -34,-34l0 0c0,-19 15,-34 34,-34zm792 267c0,3 -1,5 -2,7l-201 286c0,0 0,0 0,0 -17,25 -55,28 -85,7 -29,-20 -39,-57 -22,-82 0,0 0,0 0,0l200 -286c2,-2 4,-4 6,-5 14,15 30,29 48,42 18,12 37,23 56,31zm284 -517c128,90 159,266 70,394 -90,128 -266,159 -394,69 -128,-89 -159,-266 -69,-394 89,-127 266,-158 393,-69zm-27 39c106,75 132,221 57,327 -74,106 -220,132 -326,58 -106,-75 -132,-221 -58,-327 74,-106 221,-132 327,-58zm-716 75l33 0c19,0 34,15 34,34l0 0c0,19 -15,34 -34,34l-33 0c-19,0 -34,-15 -34,-34l0 0c0,-19 15,-34 34,-34zm-186 0l98 0c18,0 34,15 34,34l0 0c0,19 -16,34 -34,34l-98 0c-19,0 -34,-15 -34,-34l0 0c0,-19 15,-34 34,-34zm83 -136l77 0c19,0 34,15 34,34l0 0c0,18 -15,34 -34,34l-77 0c-19,0 -34,-16 -34,-34l0 0c0,-19 15,-34 34,-34z"/>
 </g>
</svg>
