<?xml version="1.0" encoding="UTF-8"?>
<!DOCTYPE svg PUBLIC "-//W3C//DTD SVG 1.1//EN" "http://www.w3.org/Graphics/SVG/1.1/DTD/svg11.dtd">
<!-- Creator: CorelDRAW X7 -->
<svg xmlns="http://www.w3.org/2000/svg" xml:space="preserve" width="72px" height="53px" version="1.1" style="shape-rendering:geometricPrecision; text-rendering:geometricPrecision; image-rendering:optimizeQuality; fill-rule:evenodd; clip-rule:evenodd"
viewBox="0 0 720 530"
 xmlns:xlink="http://www.w3.org/1999/xlink">
 <defs>
  <style type="text/css">
   <![CDATA[
    .fil0 {fill:url(#id0)}
   ]]>
  </style>
  <linearGradient id="id0" gradientUnits="userSpaceOnUse" x1="62.0926" y1="184.553" x2="657.907" y2="345.448">
   <stop offset="0" style="stop-opacity:1; stop-color:#58BA6E"/>
   <stop offset="1" style="stop-opacity:1; stop-color:#4CA481"/>
  </linearGradient>
 </defs>
 <g id="Layer_x0020_1">
  <metadata id="CorelCorpID_0Corel-Layer"/>
  <path class="fil0" d="M595 86c69,48 86,142 38,211 -48,69 -143,85 -211,37 -69,-48 -86,-142 -38,-211 48,-68 143,-85 211,-37zm-363 -12l115 0c70,-83 192,-100 283,-37 95,67 119,199 52,294 -59,84 -167,112 -258,73l27 -38c69,26 150,3 194,-60 53,-76 34,-180 -41,-232 -75,-53 -179,-35 -232,41 -44,63 -38,146 10,203l-27 38c-8,-9 -15,-17 -21,-26l-152 0c-10,0 -18,-9 -18,-19l0 0c0,-10 8,-18 18,-18l132 0 13 0c10,0 18,-8 18,-18l0 0c0,-10 -8,-18 -18,-18l-25 0c0,-1 0,-1 0,-1 -2,0 -3,1 -5,1l-75 0c-10,0 -18,-9 -18,-19l0 0c0,-10 8,-18 18,-18l75 0c0,0 0,0 0,0l0 0 3 0c10,0 18,-8 18,-18l0 0c0,-10 -8,-19 -18,-19l-1 0 -35 0c-10,0 -18,-8 -18,-18l0 0c0,-10 8,-18 18,-18l43 0 4 0 8 0c10,0 18,-8 18,-18l0 0c0,-9 -6,-17 -15,-18l0 -1 -90 0c-10,0 -18,-8 -18,-18l0 0c0,-10 8,-18 18,-18zm237 60c0,0 0,1 0,1 0,3 0,6 0,9l0 29 0 71c-3,-1 -5,-3 -8,-4 -3,-1 -6,-2 -9,-2 -4,-1 -7,0 -11,0 -6,2 -8,4 -13,8 -5,4 -8,11 -9,18 -2,24 19,39 39,33 6,-2 13,-7 16,-13 3,-4 5,-8 5,-14l0 -65c0,-9 0,-19 0,-28 14,1 60,-21 83,-13l0 29 0 21 0 9 0 3 0 1 0 0 0 0c0,0 0,0 0,0 0,0 0,0 0,0 -4,-1 -6,-3 -11,-4 -4,0 -8,0 -12,1 -13,4 -20,19 -16,32 2,5 5,10 10,13 7,5 17,6 26,1 2,0 3,-1 4,-2 4,-3 7,-7 8,-13 1,-1 1,-5 1,-10l0 -35 0 0 0 0 0 -8 0 -21 0 -17 0 -16 0 -11c0,-5 0,-9 0,-14 0,-25 -32,23 -102,11 -1,0 -1,0 -1,0zm-381 159l47 0c10,0 18,8 18,18l0 0c0,10 -8,19 -18,19l-47 0c-10,0 -18,-9 -18,-19l0 0c0,-10 8,-18 18,-18zm41 -73l47 0c10,0 18,8 18,18l0 0c0,10 -8,19 -18,19l-47 0c-10,0 -19,-9 -19,-19l0 0c0,-10 9,-18 19,-18zm-111 0l61 0c10,0 18,8 18,18l0 0c0,10 -8,19 -18,19l-61 0c-10,0 -18,-9 -18,-19l0 0c0,-10 8,-18 18,-18zm425 143c0,2 -1,3 -1,4l-108 153c0,0 0,0 0,0 -9,13 -30,15 -45,4 -16,-11 -21,-31 -12,-44 0,0 0,0 0,0l107 -153c1,-2 2,-2 3,-3 8,8 16,16 26,22 10,7 20,13 30,17zm-246 -216l18 0c10,0 18,8 18,18l0 0c0,10 -8,18 -18,18l-18 0c-10,0 -18,-8 -18,-18l0 0c0,-10 8,-18 18,-18zm-100 0l52 0c10,0 19,8 19,18l0 0c0,10 -9,18 -19,18l-52 0c-10,0 -18,-8 -18,-18l0 0c0,-10 8,-18 18,-18zm44 -73l42 0c10,0 18,8 18,18l0 0c0,10 -8,18 -18,18l-42 0c-10,0 -18,-8 -18,-18l0 0c0,-10 8,-18 18,-18zm440 33c57,40 70,118 31,175 -40,57 -119,71 -176,31 -56,-40 -70,-118 -30,-175 39,-57 118,-71 175,-31z"/>
 </g>
</svg>
