<?xml version="1.0" encoding="UTF-8"?>
<!DOCTYPE svg PUBLIC "-//W3C//DTD SVG 1.1//EN" "http://www.w3.org/Graphics/SVG/1.1/DTD/svg11.dtd">
<!-- Creator: CorelDRAW X7 -->
<svg xmlns="http://www.w3.org/2000/svg" xml:space="preserve" width="96px" height="71px" version="1.1" style="shape-rendering:geometricPrecision; text-rendering:geometricPrecision; image-rendering:optimizeQuality; fill-rule:evenodd; clip-rule:evenodd"
viewBox="0 0 960 710"
 xmlns:xlink="http://www.w3.org/1999/xlink">
 <defs>
  <style type="text/css">
   <![CDATA[
    .fil0 {fill:url(#id0)}
   ]]>
  </style>
  <linearGradient id="id0" gradientUnits="userSpaceOnUse" x1="82.7855" y1="247.731" x2="877.214" y2="462.271">
   <stop offset="0" style="stop-opacity:1; stop-color:#58BA6E"/>
   <stop offset="1" style="stop-opacity:1; stop-color:#4CA481"/>
  </linearGradient>
 </defs>
 <g id="Layer_x0020_1">
  <metadata id="CorelCorpID_0Corel-Layer"/>
  <path class="fil0" d="M794 116c91,64 114,190 50,282 -64,91 -190,113 -282,49 -91,-64 -114,-190 -50,-281 65,-92 191,-114 282,-50zm-485 -16l153 0c93,-110 257,-134 378,-49 127,89 158,265 69,392 -78,112 -223,150 -343,97l35 -50c92,34 200,4 259,-81 70,-100 46,-239 -55,-309 -100,-70 -238,-46 -309,54 -59,85 -51,196 13,271l-36 51c-10,-11 -19,-23 -28,-35l-202 0c-14,0 -25,-11 -25,-24l0 0c0,-14 11,-25 25,-25l176 0 17 0c13,0 24,-11 24,-24l0 0c0,-13 -11,-24 -24,-24l-33 0c0,-1 0,-1 0,-1 -2,0 -5,1 -7,1l-100 0c-13,0 -24,-11 -24,-25l0 0c0,-13 11,-24 24,-24l100 0c0,0 0,0 0,0l0 0 4 0c13,0 24,-11 24,-24l0 0c0,-14 -11,-25 -24,-25l-2 0 -46 0c-14,0 -25,-11 -25,-24l0 0c0,-13 11,-24 25,-24l57 0 5 0 12 0c13,0 24,-11 24,-25l0 0c0,-12 -9,-22 -21,-24l0 0 -120 0c-13,0 -24,-11 -24,-24l0 0c0,-14 11,-25 24,-25zm316 80c0,1 0,1 0,2 0,4 0,8 0,11l0 39 0 95c-4,-2 -6,-4 -10,-5 -4,-2 -8,-3 -12,-4 -5,0 -10,0 -15,2 -8,2 -11,4 -17,9 -7,7 -11,16 -13,25 -2,32 26,51 53,43 8,-2 17,-9 21,-16 4,-5 6,-12 7,-19l0 -87c0,-13 0,-25 0,-38 18,1 79,-27 110,-16l0 39 0 27 0 12 0 4 0 1 0 0 0 1c0,0 0,0 0,0 0,0 0,0 0,0 -5,-2 -7,-4 -14,-5 -5,-1 -11,-1 -16,1 -17,5 -27,25 -21,42 2,7 7,13 13,17 9,7 23,8 35,2 1,-1 3,-2 4,-3 6,-5 10,-9 12,-17 1,-2 1,-8 1,-14l0 -46 0 0 0 -1 0 -10 0 -28 0 -22 0 -22 0 -14c0,-7 0,-13 0,-20 0,-33 -43,32 -137,15 0,0 -1,0 -1,0zm-507 212l62 0c14,0 25,11 25,25l0 0c0,13 -11,24 -25,24l-62 0c-14,0 -25,-11 -25,-24l0 0c0,-14 11,-25 25,-25zm54 -97l62 0c14,0 24,11 24,24l0 0c0,14 -10,25 -24,25l-62 0c-14,0 -25,-11 -25,-25l0 0c0,-13 11,-24 25,-24zm-148 0l81 0c13,0 24,11 24,24l0 0c0,14 -11,25 -24,25l-81 0c-13,0 -24,-11 -24,-25l0 0c0,-13 11,-24 24,-24zm567 191c0,2 -1,3 -2,5l-143 204c0,0 0,0 -1,0 -12,18 -39,20 -60,5 -21,-14 -28,-41 -16,-58 0,0 0,0 0,-1l143 -204c1,-1 2,-3 4,-4 10,11 22,22 35,31 13,9 26,16 40,22zm-329 -288l24 0c13,0 24,11 24,24l0 0c0,13 -11,24 -24,24l-24 0c-13,0 -24,-11 -24,-24l0 0c0,-13 11,-24 24,-24zm-133 0l70 0c14,0 25,11 25,24l0 0c0,13 -11,24 -25,24l-70 0c-13,0 -24,-11 -24,-24l0 0c0,-13 11,-24 24,-24zm60 -98l55 0c13,0 24,11 24,25l0 0c0,13 -11,24 -24,24l-55 0c-14,0 -25,-11 -25,-24l0 0c0,-14 11,-25 25,-25zm585 44c76,54 95,158 41,234 -53,76 -157,94 -233,41 -76,-53 -94,-158 -41,-233 53,-76 157,-95 233,-42z"/>
 </g>
</svg>
